# xmcd
# 
# Track frame offsets:
#     150
#     11675
#     30280
#     50652
#     64540
#     83997
#     110782
#     131940
#     174047
#     190840
#     202940
#     231930
#     246122
# 
# Disc length: 3510
# 
# Revision: 4
# Processed by: cddbd v1.5.2PL0 Copyright (c) Steve Scherf et al.
# Submitted via: fre:ac v1.0.31
# 
DISCID=a90db40d
DTITLE=Joe Raphael und die Party Singers - Die Fete ( Bombenhits Super - Stimmu
DYEAR=0
DGENRE=Karneval
TTITLE0=Joe Raphael und die Party Singers - Ramba-Zamba-Stimmung
TTITLE1=Joe Raphael und die Party Singers - Samba-Stimmung
TTITLE2=Joe Raphael und die Party Singers - Bierzelt-Märsche
TTITLE3=Joe Raphael und die Party Singers - Stimmung aus Amerika
TTITLE4=Joe Raphael und die Party Singers - Matrosen-Hits
TTITLE5=Foxtrott-Oldies
TTITLE6=Bierzelt-Walzer
TTITLE7=Stimmung am Rhein
TTITLE8=Volkslieder-Hitparade
TTITLE9=Rheinländer-Stimmung
TTITLE10=Oldtimer-Parade
TTITLE11=Studenten-Lieder
TTITLE12=Wanderlieder-Hitparade
EXTD=
EXTT0=
EXTT1=
EXTT2=
EXTT3=
EXTT4=
EXTT5=
EXTT6=
EXTT7=
EXTT8=
EXTT9=
EXTT10=
EXTT11=
EXTT12=
PLAYORDER=
